# xmcd
#
# Track frame offsets: 
#        150
#        12767
#        26745
#        37120
#        47377
#        57567
#        70792
#        81267
#        93030
#        105412
#        116935
#        128220
#        140195
#        151480
#        164100
#        179915
#        195425
#        206307
#        221212
#        232997
#        245667
#        263800
#        276270
#        287187
#        299655
#        310017
#
# Disc length: 4285 seconds
#
# Revision: 4
# Processed by: cddbd v1.5.2PL0 Copyright (c) Steve Scherf et al.
# Submitted via: ExactAudioCopyFreeDBPlugin 1.0
#
DISCID=9410bb1a
DTITLE=Sam Cooke - The Man Who Invented Soul [box set]
DYEAR=2000
DGENRE=Soul
TTITLE0=Somebody's Gonna Miss Me
TTITLE1=Somebody Have Mercy
TTITLE2=Sugar Dumpling (original version)
TTITLE3=Nothin' Can Change This Love (unreleased version)
TTITLE4=Talkin' Trash
TTITLE5=Movin' and Groovin'
TTITLE6=Soothe Me
TTITLE7=Having a Party
TTITLE8=Bring it on Home to Me
TTITLE9=A Whole Lotta Woman
TTITLE10=I'm Gonna Forget About You
TTITLE11=Nothin' Can Change This Love
TTITLE12=Baby, Baby, Baby
TTITLE13=Send Me Some Lovin'
TTITLE14=All the Way
TTITLE15=Smoke Rings
TTITLE16=I Wish You Love
TTITLE17=Driftin' Blues
TTITLE18=Little Girl
TTITLE19=Cry Me a River
TTITLE20=These Foolish Things
TTITLE21=Frankie and Johnnie
TTITLE22=I Ain't Gonna Cheat on You No More
TTITLE23=Another Saturday Night (unreleased take)
TTITLE24=Love Will Find a Way
TTITLE25=Cool Train (first stereo release)
EXTD=YEAR: 2000
EXTT0=
EXTT1=
EXTT2=
EXTT3=
EXTT4=
EXTT5=
EXTT6=
EXTT7=
EXTT8=
EXTT9=
EXTT10=
EXTT11=
EXTT12=
EXTT13=
EXTT14=
EXTT15=
EXTT16=
EXTT17=
EXTT18=
EXTT19=
EXTT20=
EXTT21=
EXTT22=
EXTT23=
EXTT24=
EXTT25=
PLAYORDER=
